<?xml version="1.0" encoding="UTF-8" standalone="no"?>
<svg
   viewBox="0 0 32 32"
   version="1.1"
   id="svg2"
   sodipodi:docname="cockpit-icon-y2-colors.svg"
   xml:space="preserve"
   inkscape:version="1.4.1 (unknown)"
   xmlns:inkscape="http://www.inkscape.org/namespaces/inkscape"
   xmlns:sodipodi="http://sodipodi.sourceforge.net/DTD/sodipodi-0.dtd"
   xmlns="http://www.w3.org/2000/svg"
   xmlns:svg="http://www.w3.org/2000/svg"><sodipodi:namedview
     id="namedview2"
     pagecolor="#ffffff"
     bordercolor="#000000"
     borderopacity="0.25"
     inkscape:showpageshadow="2"
     inkscape:pageopacity="0.0"
     inkscape:pagecheckerboard="0"
     inkscape:deskcolor="#d1d1d1"
     inkscape:zoom="10.24"
     inkscape:cx="-21.09375"
     inkscape:cy="7.3730468"
     inkscape:window-width="2560"
     inkscape:window-height="1011"
     inkscape:window-x="0"
     inkscape:window-y="0"
     inkscape:window-maximized="1"
     inkscape:current-layer="g2" /><defs
     id="defs1"><linearGradient
       id="a"
       gradientUnits="userSpaceOnUse"
       x1="-50.450001"
       x2="-50.450001"
       y1="-0.041000001"
       y2="-22.041"><stop
         offset="0"
         stop-color="#1b887e"
         id="stop1" /><stop
         offset=".071"
         stop-color="#1b887e"
         id="stop2" /><stop
         offset=".214"
         stop-color="#25b9ab"
         id="stop3" /><stop
         offset=".464"
         stop-color="#1b887e"
         id="stop4" /><stop
         offset="1"
         stop-color="#1b887e"
         id="stop5" /></linearGradient></defs><g
     fill="#fff"
     class="ct-icon"
     id="g2"><g
       stroke-width="0.55"
       transform="matrix(0,-1.2727,-1.2727,0,1.330632,-33.832975)"
       id="g6"><rect
         fill="url(#a)"
         height="22"
         rx="11"
         width="22"
         x="-50.450001"
         y="-22.041"
         id="rect5"
         style="fill:url(#a)" /><rect
         fill="#25b9ab"
         height="22"
         rx="11"
         width="22"
         x="-49.664001"
         y="-22.041"
         id="rect6" /></g><path
       class="ct-icon-plane"
       d="M21.26 10c-.664-.024-1.67.498-2.575 1.398l-1.951 1.94-5.846-1.963-1.14 1.177 4.408 3.35-.986.98c-.349.346-.64.71-.87 1.066l-2.652-.197-.648.656 2.641 1.956L13.571 23l.652-.653-.196-2.679c.334-.22.677-.494 1.005-.822l1.038-1.031 3.382 4.442 1.177-1.14-1.973-5.875 1.89-1.879c1.207-1.2 1.763-2.603 1.248-3.149-.13-.136-.313-.205-.534-.213z"
       id="path2"
       style="fill:#ffffff;fill-opacity:1;stroke:#000000;stroke-opacity:1;stroke-width:0.5;stroke-dasharray:none" /></g></svg>
