<svg height="96" width="96" xmlns="http://www.w3.org/2000/svg" xmlns:xlink="http://www.w3.org/1999/xlink"><linearGradient id="a"><stop offset="0" stop-color="#fefefe"/><stop offset="1" stop-color="#fefefe" stop-opacity="0"/></linearGradient><linearGradient id="b" gradientTransform="matrix(-.55005434 0 0 .46054618 86.5657 14.435964)" gradientUnits="userSpaceOnUse" x1="83.967552" x2="75.458626" xlink:href="#ai" y1="34.926083" y2="60.119064"/><radialGradient id="c" cx="81.140503" cy="20.693129" gradientTransform="matrix(1 0 0 .92307684 0 1.591781)" gradientUnits="userSpaceOnUse" r="2.298097" xlink:href="#a"/><linearGradient id="d" gradientTransform="matrix(1.5347121 0 0 1.4951654 -1178.4857 -149.64962)" gradientUnits="userSpaceOnUse" x1="808.01056" x2="802.64551" xlink:href="#a" y1="104.16836" y2="121.88634"/><linearGradient id="e" gradientTransform="matrix(1.0521272 0 0 1.0454568 -21.371395 -11.355111)" gradientUnits="userSpaceOnUse" x1="82.425339" x2="73.324661" xlink:href="#a" y1="38.625" y2="46.125"/><linearGradient id="f" gradientTransform="matrix(.55005434 0 0 .46054618 19.169493 16.435964)" gradientUnits="userSpaceOnUse" x1="83.967552" x2="75.458626" xlink:href="#ai" y1="34.926083" y2="60.119064"/><linearGradient id="g" gradientTransform="matrix(.48515625 0 0 .41062828 18.83705 8.120398)" gradientUnits="userSpaceOnUse" x1="36.7724" x2="49.7276" xlink:href="#a" y1="34.625" y2="48.875"/><linearGradient id="h" gradientTransform="matrix(.72842465 0 0 .61700132 8.565578 5.299757)" gradientUnits="userSpaceOnUse" x1="52.25" x2="55.25" xlink:href="#a" y1="70.5" y2="60.5"/><linearGradient id="i" gradientTransform="matrix(1.0202482 0 0 .72842465 -23.412919 -86.401535)" gradientUnits="userSpaceOnUse" x1="29.578426" x2="30.578426" xlink:href="#a" y1="14.615855" y2="83.558769"/><linearGradient id="j" gradientTransform="matrix(.72842465 0 0 .61700132 8.59654 9.15251)" gradientUnits="userSpaceOnUse" x1="58.689865" x2="47.237804" y1="25.112543" y2="72.135147"><stop offset="0" stop-color="#5bc5f5"/><stop offset="1" stop-color="#0e96d6"/></linearGradient><linearGradient id="k" gradientTransform="matrix(.08047843 0 0 1.0196816 47.925174 -96.7922)" gradientUnits="userSpaceOnUse" x1="19.071428" x2="18" xlink:href="#ak" y1="7.625" y2="85.625"/><linearGradient id="l" gradientTransform="matrix(.08047843 0 0 1.0346914 43.606135 -99.204036)" gradientUnits="userSpaceOnUse" x1="19.071428" x2="18" xlink:href="#ak" y1="7.625" y2="85.625"/><linearGradient id="m" gradientTransform="matrix(.08047843 0 0 1.0346914 39.749883 -97.204036)" gradientUnits="userSpaceOnUse" x1="19.071428" x2="18" xlink:href="#ak" y1="7.625" y2="85.625"/><linearGradient id="n" gradientTransform="matrix(1.002881 0 0 .42930385 28.990509 18.616493)" gradientUnits="userSpaceOnUse" x1="29.578426" x2="30.578426" xlink:href="#a" y1="14.615855" y2="83.558769"/><linearGradient id="o" gradientTransform="matrix(.90207476 0 0 .4707077 -.089343 15.10172)" gradientUnits="userSpaceOnUse" x1="29.578426" x2="30.578426" xlink:href="#a" y1="14.615855" y2="83.558769"/><linearGradient id="p" gradientTransform="matrix(.08047843 0 0 1.0346914 35.430887 -97.204036)" gradientUnits="userSpaceOnUse" x1="19.071428" x2="18" xlink:href="#ak" y1="7.625" y2="85.625"/><linearGradient id="q" gradientTransform="matrix(1.0532841 0 0 .55912351 46.301184 7.848955)" gradientUnits="userSpaceOnUse" x1="29.578426" x2="30.578426" xlink:href="#a" y1="14.615855" y2="83.558769"/><linearGradient id="r" gradientTransform="matrix(.08047843 0 0 1.0346914 31.111863 -97.204036)" gradientUnits="userSpaceOnUse" x1="19.071428" x2="18" xlink:href="#ak" y1="7.625" y2="85.625"/><linearGradient id="s" gradientTransform="matrix(.12668255 0 0 .61700132 27.33847 1.467434)" gradientUnits="userSpaceOnUse" x1="18.25" x2="18" xlink:href="#al" y1="9.875" y2="86.375"/><linearGradient id="t" gradientTransform="matrix(.72868716 0 0 .61700132 22.499483 2.682849)" gradientUnits="userSpaceOnUse" x1="29.578426" x2="30.578426" xlink:href="#a" y1="14.615855" y2="83.558769"/><linearGradient id="u" gradientTransform="matrix(.89216866 0 0 .72842465 -2.100137 -78.429634)" gradientUnits="userSpaceOnUse" x1="29.578426" x2="30.578426" xlink:href="#a" y1="14.615855" y2="83.558769"/><linearGradient id="v" gradientTransform="matrix(.08047843 0 0 1.0346914 26.792853 -97.204036)" gradientUnits="userSpaceOnUse" x1="19.071428" x2="18" xlink:href="#ak" y1="7.625" y2="85.625"/><linearGradient id="w" gradientTransform="matrix(.12668255 0 0 .61700132 35.79828 1.467434)" gradientUnits="userSpaceOnUse" x1="18.25" x2="18" xlink:href="#al" y1="9.875" y2="86.375"/><linearGradient id="x" gradientTransform="matrix(.85167159 0 0 .61700132 -8.295313 2.682849)" gradientUnits="userSpaceOnUse" x1="29.578426" x2="30.578426" xlink:href="#a" y1="14.615855" y2="83.558769"/><linearGradient id="y" gradientTransform="matrix(.08047843 0 0 1.0572062 22.628096 -98.259429)" gradientUnits="userSpaceOnUse" x1="19.071428" x2="18" xlink:href="#ak" y1="7.625" y2="85.625"/><linearGradient id="z" gradientTransform="matrix(.08047843 0 0 1.0572062 18.309086 -98.259429)" gradientUnits="userSpaceOnUse" x1="19.071428" x2="18" xlink:href="#ak" y1="7.625" y2="85.625"/><linearGradient id="A" gradientTransform="matrix(.08047843 0 0 .97840452 13.835824 -93.544455)" gradientUnits="userSpaceOnUse" x1="19.071428" x2="18" xlink:href="#ak" y1="7.625" y2="85.625"/><linearGradient id="B" gradientTransform="matrix(.8232233 0 0 1 -9.620466 0)" gradientUnits="userSpaceOnUse" x1="29.578426" x2="30.578426" xlink:href="#a" y1="14.615855" y2="83.558769"/><linearGradient id="C" gradientTransform="matrix(.12668255 0 0 .61700132 72.899396 2.422243)" gradientUnits="userSpaceOnUse" x1="18.25" x2="18" xlink:href="#al" y1="9.875" y2="86.375"/><linearGradient id="D" gradientTransform="matrix(.12668255 0 0 .61700132 68.686202 1.76801)" gradientUnits="userSpaceOnUse" x1="18.25" x2="18" xlink:href="#al" y1="9.875" y2="86.375"/><linearGradient id="E" gradientTransform="matrix(.12668255 0 0 .61700132 63.867678 1.922243)" gradientUnits="userSpaceOnUse" x1="18.25" x2="18" xlink:href="#al" y1="9.875" y2="86.375"/><linearGradient id="F" gradientTransform="matrix(.12668255 0 0 .61700132 54.413206 1.853105)" gradientUnits="userSpaceOnUse" x1="18.25" x2="18" xlink:href="#al" y1="9.875" y2="86.375"/><linearGradient id="G" gradientTransform="matrix(.12668255 0 0 .61700132 49.803433 2.007339)" gradientUnits="userSpaceOnUse" x1="18.25" x2="18" xlink:href="#al" y1="9.875" y2="86.375"/><linearGradient id="H" gradientTransform="matrix(.12668255 0 0 .61700132 45.522362 1.757339)" gradientUnits="userSpaceOnUse" x1="18.25" x2="18" xlink:href="#al" y1="9.875" y2="86.375"/><linearGradient id="I" gradientTransform="matrix(.12668255 0 0 .61700132 40.78759 1.911588)" gradientUnits="userSpaceOnUse" x1="18.25" x2="18" xlink:href="#al" y1="9.875" y2="86.375"/><linearGradient id="J" gradientTransform="matrix(.12668255 0 0 .61700132 31.58847 1.467434)" gradientUnits="userSpaceOnUse" x1="18.25" x2="18" xlink:href="#al" y1="9.875" y2="86.375"/><linearGradient id="K" gradientTransform="matrix(.12668255 0 0 .61700132 23.33758 1.382339)" gradientUnits="userSpaceOnUse" x1="18.25" x2="18" xlink:href="#al" y1="9.875" y2="86.375"/><linearGradient id="L" gradientTransform="matrix(.08047843 0 0 .98590943 9.5168 -94.187998)" gradientUnits="userSpaceOnUse" x1="19.071428" x2="18" xlink:href="#ak" y1="7.625" y2="85.625"/><linearGradient id="M" gradientTransform="matrix(.12668255 0 0 .61700132 19.29571 1.382339)" gradientUnits="userSpaceOnUse" x1="18.25" x2="18" xlink:href="#al" y1="9.875" y2="86.375"/><linearGradient id="N" gradientTransform="matrix(.12668255 0 0 .63564468 15.43594 .312921)" gradientUnits="userSpaceOnUse" x1="18.25" x2="18" xlink:href="#al" y1="9.875" y2="86.375"/><linearGradient id="O" gradientUnits="userSpaceOnUse" x1="687.63629" x2="689.11163" y1="185.28664" y2="188.86133"><stop offset="0" stop-color="#8f8f8f"/><stop offset="1" stop-color="#fefefe"/></linearGradient><linearGradient id="P" gradientUnits="userSpaceOnUse" x1="687.5661" x2="688.62604" y1="185.19556" y2="189.57243"><stop offset="0" stop-color="#303030"/><stop offset="1" stop-color="#1f1f1f" stop-opacity=".543147"/></linearGradient><linearGradient id="Q" gradientUnits="userSpaceOnUse" x1="687.33044" x2="688.65283" y1="185.13077" y2="188.08203"><stop offset="0" stop-color="#0d3998"/><stop offset="1" stop-color="#396fe7"/></linearGradient><linearGradient id="R" gradientUnits="userSpaceOnUse" x1="687.33044" x2="688.34698" y1="184.81905" y2="188.54961"><stop offset="0" stop-color="#0c358c"/><stop offset="1" stop-color="#396fe7"/></linearGradient><linearGradient id="S" gradientUnits="userSpaceOnUse" x1="687.17755" x2="689.26453" y1="185.13077" y2="188.54961"><stop offset="0" stop-color="#909090"/><stop offset="1" stop-color="#fefefe"/></linearGradient><linearGradient id="T" gradientUnits="userSpaceOnUse" x1="687.78925" x2="688.80579" y1="185.44249" y2="188.70547"><stop offset="0" stop-color="#878787"/><stop offset="1" stop-color="#fefefe"/></linearGradient><linearGradient id="U" gradientUnits="userSpaceOnUse" x1="687.33044" x2="686.51184" y1="189.65071" y2="186.05585"><stop offset="0" stop-color="#e90000"/><stop offset="1" stop-color="#700000"/></linearGradient><radialGradient id="V" cx="48" cy="90.171875" gradientTransform="matrix(1.1573129 0 0 .99590774 -7.551021 .197132)" gradientUnits="userSpaceOnUse" r="42" xlink:href="#a"/><linearGradient id="W" gradientTransform="matrix(1 0 0 1.009674 0 -.867335)" gradientUnits="userSpaceOnUse" x1="36.357143" x2="36.357143" xlink:href="#a" y1="6" y2="63.893143"/><linearGradient id="X" gradientUnits="userSpaceOnUse" x1="692.862" x2="690.5329" xlink:href="#a" y1="185.02609" y2="191.39859"/><radialGradient id="Y" cx="694.94952" cy="186.07422" gradientTransform="matrix(1.023334 .06995865 -.08230935 1.3891993 -.791333 -121.45759)" gradientUnits="userSpaceOnUse" r="6.088197"><stop offset="0" stop-color="#cdcdcd"/><stop offset="1" stop-color="#292929"/></radialGradient><linearGradient id="Z" gradientUnits="userSpaceOnUse" x1="688.20117" x2="692.55414" xlink:href="#a" y1="193.43996" y2="189.66278"/><linearGradient id="aa" gradientUnits="userSpaceOnUse" x1="687.33044" x2="686.51184" y1="189.65071" y2="186.05585"><stop offset="0" stop-color="#e90000"/><stop offset="1" stop-color="#6b0000"/></linearGradient><linearGradient id="ab" gradientTransform="matrix(1.4347189 0 0 1.4256228 -970.7142 -198.09495)" gradientUnits="userSpaceOnUse" x1="702.91644" x2="702.6156" y1="180.16733" y2="196.18109"><stop offset="0" stop-color="#a4a4a4"/><stop offset="1" stop-color="#cfcfcf"/></linearGradient><linearGradient id="ac" gradientTransform="matrix(.12668255 0 0 .61700132 59.07409 2.007339)" gradientUnits="userSpaceOnUse" x1="18.25" x2="18" xlink:href="#al" y1="9.875" y2="86.375"/><linearGradient id="ad" gradientTransform="matrix(.12668255 0 0 .61700132 77.024396 2.297243)" gradientUnits="userSpaceOnUse" x1="18.25" x2="18" xlink:href="#al" y1="9.875" y2="86.375"/><radialGradient id="ae" cx="47.771374" cy="10.34541" gradientTransform="matrix(.02991534 .9359875 -1.9604849 .06130571 65.249833 -36.897473)" gradientUnits="userSpaceOnUse" r="42"><stop offset="0" stop-color="#0e96d6"/><stop offset="1" stop-color="#00161f"/></radialGradient><linearGradient id="af" gradientTransform="translate(0 -97)" gradientUnits="userSpaceOnUse" x1="32.251034" x2="32.251034" xlink:href="#am" y1="6.131708" y2="90.238609"/><linearGradient id="ag" gradientTransform="matrix(1.0238095 0 0 1.0119048 -1.142857 -98.071429)" gradientUnits="userSpaceOnUse" x1="32.251034" x2="32.251034" xlink:href="#am" y1="6.131708" y2="90.238609"/><linearGradient id="ah" gradientTransform="matrix(1.0238095 0 0 -.99910666 -1.142857 98.020331)" gradientUnits="userSpaceOnUse" x1="32.251034" x2="32.251034" xlink:href="#am" y1="6.131708" y2="90.238609"/><linearGradient id="ai"><stop offset="0" stop-color="#34aae1"/><stop offset="1" stop-color="#34aae1" stop-opacity="0"/></linearGradient><filter id="aj" color-interpolation-filters="sRGB" height="1.016462" width="2.554774" x="-.777387" y="-.008231"><feGaussianBlur stdDeviation=".26665121"/></filter><linearGradient id="ak"><stop offset="0" stop-color="#2197f4" stop-opacity="0"/><stop offset=".06994281" stop-color="#1899f5"/><stop offset=".46101803" stop-color="#109cf6"/><stop offset=".92658001" stop-color="#00a2f9"/><stop offset="1" stop-color="#32abff" stop-opacity="0"/></linearGradient><linearGradient id="al"><stop offset="0" stop-color="#2197f4"/><stop offset=".5" stop-color="#00a2f9"/><stop offset="1" stop-color="#32abff" stop-opacity="0"/></linearGradient><linearGradient id="am" gradientTransform="matrix(1.0058652 0 0 .994169 100 0)" gradientUnits="userSpaceOnUse" x1="45.447727" x2="45.447727" y1="92.539597" y2="7.01654"><stop offset="0"/><stop offset="1" stop-opacity=".588235"/></linearGradient><g transform="matrix(.97961490154 0 0 .98161829947 .96838749764 1.64987000494)"><g transform="matrix(1.0427698 0 0 1.054221 -2.052817 -4.183927)"><path d="m12 94.03125c-4.971633 0-9.03125-4.008273-9.03125-8.917027v-70.102022c0-4.908754 4.0596171-8.9170268 9.03125-8.9170268h72c4.971633 0 9.03125 4.0082728 9.03125 8.9170268v70.102022c0 4.908754-4.059617 8.917027-9.03125 8.917027z" fill="url(#ah)" opacity=".1"/><path d="m12 93.013043c-4.4091333 0-8-3.545451-8-7.89882v-70.102022c0-4.353369 3.5908667-7.8988196 8-7.8988196h72c4.409133 0 8 3.5454506 8 7.8988196v70.102022c0 4.353369-3.590867 7.89882-8 7.89882z" fill="url(#ah)" opacity=".2"/><rect fill="url(#ag)" height="85" opacity=".3" rx="7" transform="scale(1 -1)" width="86" x="5" y="-92"/><rect fill="url(#af)" height="84" opacity=".45" rx="6" transform="scale(1 -1)" width="84" x="6" y="-91"/></g><path d="m12 6h72c3.324 0 6 2.676 6 6v72c0 3.324-2.676 6-6 6h-72c-3.324 0-6-2.676-6-6v-72c0-3.324 2.676-6 6-6z" fill="url(#ae)" transform="matrix(1.0261002 0 0 1.0259373 -1.35945 -2.721408)"/><rect fill="url(#ad)" height="47.971851" rx=".717473" ry="0" width=".728425" x="78.892914" y="7.233273"/><rect fill="url(#ac)" height="47.971851" rx=".717473" ry="0" width=".728425" x="60.942596" y="6.943367"/><path d="m4.6532 56.309803v27.755094c0 3.434553 2.72347 6.192549 6.14239 6.192549h74.067367c3.418906 0 6.187225-2.757996 6.187225-6.192549v-27.755094h-86.396982z" fill="url(#ab)"/><g fill="url(#P)"><path d="m690.2563 187.61038a2.7036252 2.7036252 0 1 1 -5.40725 0 2.7036252 2.7036252 0 1 1 5.40725 0z" opacity=".338235" transform="matrix(2.2375127 0 0 2.2593707 -1488.410736 -342.386931)"/><path d="m690.2563 187.61038a2.7036252 2.7036252 0 1 1 -5.40725 0 2.7036252 2.7036252 0 1 1 5.40725 0z" opacity=".617647" transform="matrix(2.0577038 0 0 2.095908 -1364.826736 -311.719641)"/><path d="m690.2563 187.61038a2.7036252 2.7036252 0 1 1 -5.40725 0 2.7036252 2.7036252 0 1 1 5.40725 0z" opacity=".338235" transform="matrix(2.2375127 0 0 2.2593707 -1475.064095 -342.121766)"/><path d="m690.2563 187.61038a2.7036252 2.7036252 0 1 1 -5.40725 0 2.7036252 2.7036252 0 1 1 5.40725 0z" opacity=".617647" transform="matrix(2.0577038 0 0 2.095908 -1351.480095 -311.454476)"/><path d="m690.2563 187.61038a2.7036252 2.7036252 0 1 1 -5.40725 0 2.7036252 2.7036252 0 1 1 5.40725 0z" opacity=".338235" transform="matrix(2.2375127 0 0 2.2593707 -1461.408095 -341.900795)"/><path d="m690.2563 187.61038a2.7036252 2.7036252 0 1 1 -5.40725 0 2.7036252 2.7036252 0 1 1 5.40725 0z" opacity=".617647" transform="matrix(2.0577038 0 0 2.095908 -1337.824095 -311.233505)"/><path d="m690.2563 187.61038a2.7036252 2.7036252 0 1 1 -5.40725 0 2.7036252 2.7036252 0 1 1 5.40725 0z" opacity=".338235" transform="matrix(2.2375127 0 0 2.2593707 -1461.231318 -355.29163)"/><path d="m690.2563 187.61038a2.7036252 2.7036252 0 1 1 -5.40725 0 2.7036252 2.7036252 0 1 1 5.40725 0z" opacity=".617647" transform="matrix(2.0577038 0 0 2.095908 -1337.647318 -324.62434)"/><path d="m690.2563 187.61038a2.7036252 2.7036252 0 1 1 -5.40725 0 2.7036252 2.7036252 0 1 1 5.40725 0z" opacity=".338235" transform="matrix(2.2375127 0 0 2.2593707 -1474.931512 -355.600989)"/><path d="m690.2563 187.61038a2.7036252 2.7036252 0 1 1 -5.40725 0 2.7036252 2.7036252 0 1 1 5.40725 0z" opacity=".617647" transform="matrix(2.0577038 0 0 2.095908 -1351.347512 -324.933699)"/><path d="m690.2563 187.61038a2.7036252 2.7036252 0 1 1 -5.40725 0 2.7036252 2.7036252 0 1 1 5.40725 0z" opacity=".338235" transform="matrix(2.2375127 0 0 2.2593707 -1488.234 -355.73357)"/><path d="m690.2563 187.61038a2.7036252 2.7036252 0 1 1 -5.40725 0 2.7036252 2.7036252 0 1 1 5.40725 0z" opacity=".617647" transform="matrix(2.0577038 0 0 2.095908 -1364.65 -325.06628)"/><path d="m690.2563 187.61038a2.7036252 2.7036252 0 1 1 -5.40725 0 2.7036252 2.7036252 0 1 1 5.40725 0z" transform="matrix(1.86154859615 0 0 1.86706033136 -1229.78297785631 -282.22046298372)"/></g><path d="m690.2563 187.61038a2.7036252 2.7036252 0 1 1 -5.40725 0 2.7036252 2.7036252 0 1 1 5.40725 0z" fill="url(#aa)" transform="matrix(1.4873887518 0 0 1.45015378878 -972.52833244774 -204.00445626635)"/><path d="m697.64234 190.41821a5.5882 5.5146713 0 1 1 -11.1764 0 5.5882 5.5146713 0 1 1 11.1764 0z" fill="#000510" stroke="url(#Z)" stroke-opacity=".614213" stroke-width="1.276276" transform="matrix(1.5483829 0 0 1.5601151 -1049.9033 -219.93105)"/><path d="m697.64234 190.41821a5.5882 5.5146713 0 1 1 -11.1764 0 5.5882 5.5146713 0 1 1 11.1764 0z" fill="url(#Y)" stroke="url(#X)" stroke-opacity=".847716" stroke-width="1.571886" transform="matrix(1.0396286 0 0 .96171479 -697.44691 -105.98473)"/><path d="m690.2563 187.61038a2.7036252 2.7036252 0 1 1 -5.40725 0 2.7036252 2.7036252 0 1 1 5.40725 0z" fill="url(#P)" opacity=".338235" transform="matrix(2.2375127 0 0 2.2593707 -1502.685454 -359.003941)"/><path d="m690.2563 187.61038a2.7036252 2.7036252 0 1 1 -5.40725 0 2.7036252 2.7036252 0 1 1 5.40725 0z" fill="url(#P)" opacity=".617647" transform="matrix(2.0577038 0 0 2.095908 -1379.101454 -328.336651)"/><path d="m4.544661-58.621578h86.523819v.815848h-86.523819z" fill="#010101" opacity=".401961" transform="scale(1 -1)"/><g transform="matrix(1.02833659367 0 0 1.0251628179 -1.58625559934 -1.9788738586)"><path d="m12 5.1907092c-3.324 0-6 2.7018876-6 6.0580438v2.019348 68.657832 2.019348c0 .33796.04135.656995.09375.978122.0487.298456.09704.60269.1875.883465.00988.03067.020892.06422.03125.09466.098865.290555.2348802.552748.375.82036.1445918.276153.3156161.540796.5.788808.1843839.248011.3737765.478052.59375.694151.439947.432197.94291.822405 1.5 1.104331.278545.140962.5734731.249336.875.347075-.2562018-.101192-.4867109-.238558-.71875-.378628-.00741-.0044-.023866.0045-.03125 0-.031933-.01949-.062293-.04292-.09375-.0631-.120395-.07744-.2310226-.165095-.34375-.252419-.1061728-.08158-.2132809-.16267-.3125-.252418-.1779299-.162995-.3474596-.34873-.5-.53639-.1075789-.131522-.2183939-.267858-.3125-.410187-.025089-.038751-.038446-.0867-.0625-.126209-.064763-.104029-.1302275-.206496-.1875-.315523-.1010083-.19659-.2056748-.419723-.28125-.631046-.00796-.022021-.023589-.040943-.03125-.063105-.0318251-.09284-.0358045-.188638-.0625-.283971-.0303323-.107649-.0703894-.204995-.09375-.315523-.0728786-.344816-.125-.704959-.125-1.072779v-2.019348-68.657832-2.019348c0-2.8087594 2.2181517-5.0483698 5-5.0483698h2 68 2c2.781848 0 5 2.2396104 5 5.0483698v2.019348 68.657832 2.019348c0 .36782-.05212.727963-.125 1.072779-.04415.208895-.08838.401505-.15625.599494-.0077.02216-.0233.04108-.03125.0631-.06274.175419-.138383.371003-.21875.536389-.04158.0836-.07904.171598-.125.252418-.0546.09815-.126774.190173-.1875.283971-.09411.142329-.204921.278665-.3125.41018-.143174.176138-.303141.350355-.46875.504837-.01117.0103-.01998.02135-.03125.03155-.138386.12677-.285091.236704-.4375.347075-.102571.07386-.204318.154848-.3125.220866-.0074.0045-.02384-.0044-.03125 0-.232039.14007-.462548.277436-.71875.378628.301527-.09774.596455-.206113.875-.347075.55709-.281926 1.060053-.672134 1.5-1.104331.219973-.216099.409366-.44614.59375-.694151.184384-.248012.355408-.512655.5-.788808.14012-.267612.276135-.529805.375-.82036.01041-.03108.02133-.06335.03125-.09466.09046-.280775.1388-.585009.1875-.883465.0524-.321116.09375-.640151.09375-.978111v-2.019348-68.657832-2.019348c0-3.3561562-2.676-6.0580438-6-6.0580438z" fill="url(#W)" opacity=".327189"/><path d="m12 90c-3.324 0-6-2.676-6-6v-2-68-2c0-.334721.04135-.6507.09375-.96875.0487-.295596.09704-.596915.1875-.875.00988-.03038.020892-.0636.03125-.09375.098865-.287771.2348802-.547452.375-.8125.1445918-.273507.3156161-.535615.5-.78125s.3737765-.473472.59375-.6875c.439947-.428056.94291-.814526 1.5-1.09375.278545-.139612.5734731-.246947.875-.34375-.2562018.100222-.4867109.236272-.71875.375-.00741.0044-.023866-.0045-.03125 0-.031933.0193-.062293.04251-.09375.0625-.120395.0767-.2310226.163513-.34375.25-.1061728.0808-.2132809.161112-.3125.25-.1779299.161433-.3474596.345388-.5.53125-.1075789.130255-.2183939.265285-.3125.40625-.025089.03838-.038446.08587-.0625.125-.064763.103032-.1302275.204517-.1875.3125-.1010083.194706-.2056748.415701-.28125.625-.00796.02181-.023589.04055-.03125.0625-.0318251.09195-.0358045.186831-.0625.28125-.0303323.106618-.0703894.203031-.09375.3125-.0728786.341512-.125.698205-.125 1.0625v2 68 2c0 2.781848 2.2181517 5 5 5h2 68 2c2.781848 0 5-2.218152 5-5v-2-68-2c0-.364295-.05212-.720988-.125-1.0625-.04415-.206893-.08838-.397658-.15625-.59375-.0077-.02195-.0233-.04069-.03125-.0625-.06274-.173739-.138383-.367449-.21875-.53125-.04158-.0828-.07904-.169954-.125-.25-.0546-.09721-.126774-.18835-.1875-.28125-.09411-.140965-.204921-.275995-.3125-.40625-.143174-.17445-.303141-.346998-.46875-.5-.01117-.0102-.01998-.02115-.03125-.03125-.138386-.125556-.285091-.234436-.4375-.34375-.102571-.07315-.204318-.153364-.3125-.21875-.0074-.0045-.02384.0044-.03125 0-.232039-.138728-.462548-.274778-.71875-.375.301527.0968.596455.204138.875.34375.55709.279224 1.060053.665694 1.5 1.09375.219973.214028.409366.441865.59375.6875s.355408.507743.5.78125c.14012.265048.276135.524729.375.8125.01041.03078.02133.06274.03125.09375.09046.278085.1388.579404.1875.875.0524.31805.09375.634029.09375.96875v2 68 2c0 3.324-2.676 6-6 6z" fill="url(#V)" opacity=".2"/></g><path d="m690.2563 187.61038a2.7036252 2.7036252 0 1 1 -5.40725 0 2.7036252 2.7036252 0 1 1 5.40725 0z" fill="url(#P)" transform="matrix(1.86154859615 0 0 1.86706033136 -1229.89677785631 -268.77222298372)"/><path d="m690.2563 187.61038a2.7036252 2.7036252 0 1 1 -5.40725 0 2.7036252 2.7036252 0 1 1 5.40725 0z" fill="url(#U)" transform="matrix(1.4873887518 0 0 1.45015378878 -972.64213244774 -190.55621626635)"/><path d="m690.2563 187.61038a2.7036252 2.7036252 0 1 1 -5.40725 0 2.7036252 2.7036252 0 1 1 5.40725 0z" fill="url(#P)" transform="matrix(1.86154859615 0 0 1.86706033136 -1216.47642785631 -281.99444298372)"/><path d="m690.2563 187.61038a2.7036252 2.7036252 0 1 1 -5.40725 0 2.7036252 2.7036252 0 1 1 5.40725 0z" fill="url(#T)" transform="matrix(1.4873887518 0 0 1.45015378878 -959.22178244774 -203.77843626635)"/><path d="m690.2563 187.61038a2.7036252 2.7036252 0 1 1 -5.40725 0 2.7036252 2.7036252 0 1 1 5.40725 0z" fill="url(#P)" transform="matrix(1.86154859615 0 0 1.86706033136 -1216.59015785631 -268.54620298372)"/><path d="m690.2563 187.61038a2.7036252 2.7036252 0 1 1 -5.40725 0 2.7036252 2.7036252 0 1 1 5.40725 0z" fill="url(#S)" transform="matrix(1.4873887518 0 0 1.45015378878 -959.33551244774 -190.33019626635)"/><path d="m690.2563 187.61038a2.7036252 2.7036252 0 1 1 -5.40725 0 2.7036252 2.7036252 0 1 1 5.40725 0z" fill="url(#P)" transform="matrix(1.86154859615 0 0 1.86706033136 -1202.82862785631 -281.65541298372)"/><path d="m690.2563 187.61038a2.7036252 2.7036252 0 1 1 -5.40725 0 2.7036252 2.7036252 0 1 1 5.40725 0z" fill="url(#R)" transform="matrix(1.4873887518 0 0 1.45015378878 -945.57398244774 -203.43940626635)"/><path d="m690.2563 187.61038a2.7036252 2.7036252 0 1 1 -5.40725 0 2.7036252 2.7036252 0 1 1 5.40725 0z" fill="url(#P)" transform="matrix(1.86154859615 0 0 1.86706033136 -1202.94235785631 -268.20716298372)"/><path d="m690.2563 187.61038a2.7036252 2.7036252 0 1 1 -5.40725 0 2.7036252 2.7036252 0 1 1 5.40725 0z" fill="url(#Q)" transform="matrix(1.4873887518 0 0 1.45015378878 -945.68771244774 -189.99115626635)"/><path d="m690.2563 187.61038a2.7036252 2.7036252 0 1 1 -5.40725 0 2.7036252 2.7036252 0 1 1 5.40725 0z" fill="url(#P)" transform="matrix(1.86154859615 0 0 1.86706033136 -1244.22687785631 -285.38476298372)"/><path d="m690.2563 187.61038a2.7036252 2.7036252 0 1 1 -5.40725 0 2.7036252 2.7036252 0 1 1 5.40725 0z" fill="url(#O)" transform="matrix(1.4873887518 0 0 1.45015378878 -986.97223244774 -207.16875626635)"/><rect fill="url(#N)" height="49.421368" rx=".717473" ry="0" width=".728425" x="17.304512" y="5.398089"/><rect fill="url(#M)" height="47.971851" rx=".717473" ry="0" width=".728425" x="21.16433" y="6.318356"/><rect fill="url(#L)" height="76.654457" rx=".455794" ry="0" transform="rotate(90)" width=".462751" x="10.703888" y="-86.300667"/><rect fill="url(#K)" height="47.971851" rx=".717473" ry="0" width=".728425" x="25.206207" y="6.318356"/><rect fill="url(#J)" height="47.971851" rx=".717473" ry="0" width=".728425" x="33.456947" y="6.40345"/><rect fill="url(#I)" height="47.971851" rx=".717473" ry="0" width=".728425" x="42.656189" y="6.847609"/><rect fill="url(#H)" height="47.971851" rx=".717473" ry="0" width=".728425" x="47.390839" y="6.693356"/><rect fill="url(#G)" height="47.971851" rx=".717473" ry="0" width=".728425" x="51.671989" y="6.943356"/><rect fill="url(#F)" height="47.971851" rx=".717473" ry="0" width=".728425" x="56.281723" y="6.789125"/><rect fill="url(#E)" height="47.971851" rx=".717473" ry="0" width=".728425" x="65.736176" y="6.858273"/><rect fill="url(#D)" height="47.971851" rx=".717473" ry="0" width=".728425" x="70.55471" y="6.704031"/><rect fill="url(#C)" height="47.971851" rx=".717473" ry="0" width=".728425" x="74.767914" y="7.358273"/><rect fill="url(#B)" filter="url(#aj)" height="77.75" rx=".810846" ry="0" transform="matrix(0 .61700132 -.83944057 0 87.714518 6.50366)" width=".823223" x="14.729181" y="6.5"/><rect fill="url(#A)" height="76.070953" rx=".455794" ry="0" transform="rotate(90)" width=".462751" x="15.022882" y="-85.717117"/><rect fill="url(#z)" height="82.197777" rx=".455794" ry="0" transform="rotate(90)" width=".462751" x="19.496128" y="-89.801651"/><rect fill="url(#y)" height="82.197777" rx=".455794" ry="0" transform="rotate(90)" width=".462751" x="23.815144" y="-89.801651"/><rect fill="url(#x)" height="47.971851" rx=".838867" ry="0" width=".851672" x="16.89579" y="6.693358"/><rect fill="url(#w)" height="47.971851" rx=".717473" ry="0" width=".728425" x="37.666733" y="6.40345"/><rect fill="url(#v)" height="80.447258" rx=".455794" ry="0" transform="rotate(90)" width=".462751" x="27.979895" y="-88.926407"/><rect fill="url(#u)" height="56.635017" rx=".878755" ry="0" transform="rotate(90)" width=".892169" x="24.288805" y="-73.69487"/><rect fill="url(#t)" height="47.971851" rx=".717731" ry="0" width=".728687" x="44.052902" y="6.693358"/><rect fill="url(#s)" height="47.971851" rx=".717473" ry="0" width=".728425" x="29.206947" y="6.40345"/><rect fill="url(#r)" height="80.447258" rx=".455794" ry="0" transform="rotate(90)" width=".462751" x="32.298912" y="-88.926407"/><rect fill="url(#q)" height="43.471851" rx="1.037448" ry="0" width="1.053284" x="77.455666" y="11.483258"/><rect fill="url(#p)" height="80.447258" rx=".455794" ry="0" transform="rotate(90)" width=".462751" x="36.617905" y="-88.926407"/><path d="m40.153668 14.070679 11.143336 17.809686 22.978804-16.537566v33.075133s-.717949 1.480437-2.230988 2.04642c-1.513039.565984-6.42067.07378-6.42067.07378l-.265318-20.565947-19.633497 16.961606c-2.222981-10.109027-5.041032-17.279636-5.041032-17.279636l-14.725124 20.883978-9.816747-.000001s17.513406-22.208587 24.011236-36.467453z" fill="#021c27" opacity=".127451"/><rect fill="url(#o)" height="36.597523" rx=".888512" ry="0" width=".902075" x="26.592609" y="18.16132"/><rect fill="url(#n)" height="33.378376" rx=".987803" ry="0" width="1.002881" x="58.654152" y="21.406967"/><rect fill="url(#m)" height="80.447258" rx=".455794" ry="0" transform="rotate(90)" width=".462751" x="40.936943" y="-88.926407"/><rect fill="url(#l)" height="80.447258" rx=".455794" ry="0" transform="rotate(90)" width=".462751" x="44.793232" y="-90.926407"/><rect fill="url(#k)" height="79.280243" rx=".455794" ry="0" transform="rotate(90)" width=".462751" x="49.112213" y="-88.634628"/><path d="m40.21889 15.445679 10.999572 17.931118 22.682346-16.650324v33.30065s-.708686 1.490531-2.202205 2.060373c-1.493519.569843-6.337835.07428-6.337835.07428l-.261895-20.706169-19.380198 17.077255c-2.194301-10.177953-4.975996-17.397454-4.975996-17.397454l-14.535149 21.026372-9.690098-.000001s17.287459-22.360012 23.701458-36.7161z" fill="#021c27" opacity=".431373"/><path d="m40.335742 16.945679 10.879768 17.809686 22.435298-16.537566v33.075133s-.700967 1.480437-2.178219 2.04642c-1.477252.565984-6.268806.07378-6.268806.07378l-.259042-20.565947-19.169116 16.961606c-2.170401-10.109027-4.921799-17.279636-4.921799-17.279636l-14.376837 20.883978-9.584557-.000001s17.09917-22.208587 23.44331-36.467453z" fill="#021c27" opacity=".622549"/><path d="m39.75852 18.648071 10.816578 18.324 22.304943-17.015136-.291764 36.059632s.03257-.07128-.852682.07613c-.885251.147409-7.253523.07584-7.253523.07584l-.257518-21.159877-19.057758 17.451448c-2.157789-10.400973-4.893196-17.778657-4.893196-17.778657l-14.29331 21.487087h-9.52886s16.99981-22.849939 23.30709-37.520567z" fill="url(#j)"/><rect fill="url(#i)" height="56.635017" rx="1.004909" ry="0" transform="rotate(90)" width="1.020248" x="6.764415" y="-81.666779"/><path d="m83.4386 20.693129a2.2980971 2.1213202 0 1 1 -4.596194 0 2.2980971 2.1213202 0 1 1 4.596194 0z" fill="url(#c)" transform="matrix(.56845932 0 0 .54117263 36.223674 4.511379)"/><path d="m83.4386 20.693129a2.2980971 2.1213202 0 1 1 -4.596194 0 2.2980971 2.1213202 0 1 1 4.596194 0z" fill="url(#c)" transform="matrix(.65004855 0 0 .62956098 -8.165395 -5.873739)"/><path d="m83.4386 20.693129a2.2980971 2.1213202 0 1 1 -4.596194 0 2.2980971 2.1213202 0 1 1 4.596194 0z" fill="url(#c)" transform="matrix(.5412629 0 0 .80633769 -26.674682 -10.031802)"/><path d="m44.076279 41.857085 2.185274 8.021017 10.380052-9.255019" fill="none" opacity=".784314" stroke="url(#h)" stroke-width="1.005603"/><path d="m43.580019 27.419927-3.759961-6.056767-12.257234 22.930132" fill="none" stroke="url(#g)" stroke-width="1.115849"/><path d="m59.910919 35.828221 7.663356-6.381827v19.458076" fill="none" opacity=".421569" stroke="url(#f)" stroke-width="2.614248"/><path d="m83.4386 20.693129a2.2980971 2.1213202 0 1 1 -4.596194 0 2.2980971 2.1213202 0 1 1 4.596194 0z" fill="url(#c)" transform="matrix(.7316378 0 0 .68848655 22.096978 -7.100465)"/><path d="m83.4386 20.693129a2.2980971 2.1213202 0 1 1 -4.596194 0 2.2980971 2.1213202 0 1 1 4.596194 0z" fill="url(#c)" transform="matrix(.56845932 0 0 .68848655 -19.161273 3.939559)"/><path d="m54.907827 35.690445 16.571003-13.06821v44.170549" fill="none" opacity=".764706" stroke="url(#e)" stroke-width="1.678059"/><path d="m4.839829 56.0313h86.231873v2.068835h-86.231873z" fill="#fefefe" opacity=".834101"/><rect fill="url(#d)" height="49.863495" opacity=".640553" rx="4.369227" ry="4.36977" width="84.263649" x="5.57471" y="5.469763"/><path d="m83.4386 20.693129a2.2980971 2.1213202 0 1 1 -4.596194 0 2.2980971 2.1213202 0 1 1 4.596194 0z" fill="url(#c)" transform="matrix(.48687007 0 0 .62956098 19.633379 8.867344)"/><path d="m83.4386 20.693129a2.2980971 2.1213202 0 1 1 -4.596194 0 2.2980971 2.1213202 0 1 1 4.596194 0z" fill="url(#c)" transform="matrix(.48687007 0 0 .62956098 34.508379 11.617344)"/><path d="m83.4386 20.693129a2.2980971 2.1213202 0 1 1 -4.596194 0 2.2980971 2.1213202 0 1 1 4.596194 0z" fill="url(#c)" transform="matrix(.7316378 0 0 .68848655 18.596978 -2.725465)"/><path d="m45.199275 36.453221-5.038356-9.006827-8.625 15.083076" fill="none" opacity=".421569" stroke="url(#b)" stroke-width="2.614248"/></g></svg>