/* XPM */
static char * openSUSE1_xpm[] = {
"51 34 2 1",
" 	c None",
".	c #084404",
"                                                   ",
"                                                   ",
"                                                   ",
"                                                   ",
"                                                   ",
"                                                   ",
"                     ........                      ",
"                 .................  ....           ",
"              ..............................       ",
"             ............................   .      ",
"           ............................. .....     ",
"         ............................... . . .     ",
"        ................................ ... .     ",
"       .............................. ...   ...    ",
"       ...............................  ......     ",
"      ..................................           ",
"     .....    ................................     ",
"     ....       ............................       ",
"    ....  .....  .................                 ",
"    ...  .......  .....     .....                  ",
"    ...  ..   ...  ...       ....                  ",
"    ...  ..    ..  ...        ....                 ",
"    ...  ....  ..  ...         ...                 ",
"     ...  ...  ..    .           .                 ",
"     ....     ...                                  ",
"      ..........                                   ",
"       ........                                    ",
"          ...                                      ",
"                                                   ",
"                                                   ",
"                                                   ",
"                                                   ",
"                                                   ",
"                                                   "};
