<svg xmlns="http://www.w3.org/2000/svg" viewBox="0 0 16 16">
<path d="m 0,0 c 0,5.3333333 0,10.666667 0,16 4.6666667,0 9.3333333,0 14,0 1.108,0 2,-0.892 2,-2 v -1 c 0,1.108 -0.892,2 -2,2 -4.3333333,0 -8.6666667,0 -13,0 V 14 H 2 V 0 Z m 3,0 v 14 h 11 c 1.108,0 2,-0.892 2,-2 V 2 C 16,0.892 15.108,0 14,0 Z m 6,3 c 2.209141,-1.28e-5 4.000008,1.7908542 4,4 8e-6,2.209146 -1.790859,4.000013 -4,4 -1.1550633,-0.0014 -2.2531461,-0.501988 -3.0117188,-1.3730469 0.2882101,-0.20849 0.7608869,-0.1554477 1.3417969,-0.089844 0.28306,0.033 0.6057932,0.069172 0.9394531,0.076172 0.93159,0.0059 1.9342748,-0.1650068 2.5527348,-0.4355468 0.40011,-0.17389 0.656416,-0.2900669 0.816406,-0.4355469 0.05757,-0.04768 0.08804,-0.1256844 0.11914,-0.2089844 l 0.02149,-0.054687 c 0.0259,-0.06751 0.06338,-0.2091093 0.08008,-0.2871094 0.0068,-0.0343 0.01473,-0.067844 -0.01367,-0.089844 -0.0259,-0.0201 -0.08594,0.015625 -0.08594,0.015625 -0.27158,0.16346 -0.949255,0.4731281 -1.583985,0.4863281 C 9.3877256,8.6194134 7.79042,7.80465 7.625,7.71875 7.51427,7.45511 7.4033256,7.1926575 7.2910156,6.9296875 c 1.14233,0.75267 2.0891729,1.1682219 2.8144534,1.2324219 0.80744,0.07192 1.437757,-0.3694544 1.710937,-0.5527344 0.03575,-0.0238 0.07072,-0.050572 0.103516,-0.076172 0.0058,-0.0046 0.01958,-0.016244 0.01758,-0.027344 -0.04529,-0.28302 -0.466016,-1.654305 -0.785156,-1.984375 -0.08793,-0.0899 -0.158211,-0.1783188 -0.300782,-0.2617188 -1.154509,-0.67277 -3.8931639,-1.0790562 -4.0214839,-1.0976562 0,0 -0.012484,-0.00314 -0.021484,0.00586 -0.007,0.0068 -0.00977,0.019531 -0.00977,0.019531 0,0 -0.00972,0.5673594 -0.011719,0.6308594 C 6.6836917,4.7836094 6.3394525,4.6713656 5.8515625,4.5410156 6.6081025,3.5703587 7.7693419,3.0019853 9,3 Z m 0.8925781,2.3203125 c 0.6455899,0.02308 1.1530579,0.5680106 1.1308599,1.2128906 -0.01217,0.31288 -0.142904,0.6040863 -0.371094,0.8164063 -0.22888,0.21497 -0.527287,0.3249531 -0.8417971,0.3144531 -0.6449,-0.02378 -1.1524594,-0.5674306 -1.1308594,-1.2128906 0.0116,-0.31288 0.1423137,-0.6034263 0.3710937,-0.8164063 0.2288801,-0.21369 0.5287069,-0.3244531 0.8417969,-0.3144531 z m -0.00977,0.3457031 c -0.21903,-0.00789 -0.4272375,0.0699 -0.5859375,0.21875 -0.1587,0.14884 -0.2527656,0.3500194 -0.2597656,0.5683594 -0.01519,0.45116 0.3389325,0.8310562 0.7890625,0.8476562 0.2189101,0.00662 0.4282621,-0.071863 0.5878901,-0.2207031 0.159421,-0.14953 0.250813,-0.3508394 0.257813,-0.5683593 0.0152,-0.4510501 -0.337883,-0.8297032 -0.7890625,-0.8457032 z m 0.1328125,0.4101563 c 0.20046,0 0.363281,0.1079675 0.363281,0.2421875 0,0.13295 -0.162931,0.2421875 -0.363281,0.2421875 -0.2004604,0 -0.3613281,-0.1092375 -0.3613281,-0.2421875 0,-0.13422 0.1608677,-0.2421875 0.3613281,-0.2421875 z" />
</svg>
