<svg xmlns="http://www.w3.org/2000/svg" xmlns:xlink="http://www.w3.org/1999/xlink" viewBox="0 0 128 128">
<defs>
  <linearGradient id="lg0" x1="108" y1="106" x2="116" y2="106" gradientUnits="userSpaceOnUse">
    <stop offset="0"   stop-color="#e8e7e4" />
    <stop offset="0.5" stop-color="#ffffff" />
    <stop offset="1"   stop-color="#c2bfba" />
  </linearGradient>
</defs>
<path fill="#5f991f" d="m 20,48 c -4.432,0 -8,3.568 -8,8 v 60 c 30.544433,0 64.232608,0 96,0 4.432,0 8,-3.568 8,-8 V 56 c 0,-4.432 -3.568,-8 -8,-8 z" />
<rect fill="#081b27" width="12" height="12" x="12" y="104" />
<path fill="url(#lg0)" d="m 116,100 c 0,4.432 -3.568,8 -8,8 H 14 v 6 h 94 c 4.432,0 8,-3.568 8,-8 z" />
<path fill="#73ba25" d="m 12,12 v 94 c 30.544433,0 64.232608,0 96,0 4.432,0 8,-3.568 8,-8 V 20 c 0,-4.432 -3.568,-8 -8,-8 -32,0 -64,0 -96,0 z" />
<rect fill="#173f4f" width="12" height="94" x="12" y="12" />
<rect fill="#19557b" width="2" height="94" x="14" y="12" />
<path fill="#5f991f" d="M 68,27.00005 A 31.999817,31.999889 0 0 0 42.807886,39.328956 c 3.90311,1.042772 6.665667,1.938966 7.493036,2.216936 0.01296,-0.507628 0.09715,-5.047756 0.09715,-5.047756 0,0 0.01069,-0.103928 0.06614,-0.158115 0.07142,-0.06974 0.174666,-0.04868 0.174666,-0.04868 1.026578,0.148695 22.938579,3.396656 32.174604,8.778792 1.140608,0.667277 1.703605,1.376728 2.407074,2.095969 2.553108,2.640532 5.926657,13.62012 6.288983,15.884258 0.01423,0.08895 -0.09569,0.185578 -0.142626,0.222196 h -0.0011 c -0.262308,0.204681 -0.547974,0.417511 -0.834052,0.607693 -2.185448,1.466263 -7.220211,4.990659 -13.679714,4.415246 -5.802277,-0.51329 -13.382834,-3.841578 -22.52149,-9.862945 0.89852,2.103748 1.783822,4.214004 2.669589,6.323096 1.323438,0.687386 14.097281,7.196483 20.401743,7.069325 5.077847,-0.10578 10.508681,-2.582536 12.681318,-3.890208 0,0 0.477452,-0.287654 0.685224,-0.127105 0.227277,0.175576 0.164401,0.444604 0.110585,0.719346 -0.133662,0.623674 -0.437959,1.761537 -0.644911,2.301656 l -0.174668,0.440265 c -0.248703,0.666324 -0.487421,1.285659 -0.947743,1.667081 -1.279885,1.163792 -3.322681,2.089724 -6.523589,3.480899 -4.947684,2.164284 -12.974843,3.540695 -20.427582,3.493334 -2.669314,-0.05943 -5.248176,-0.355598 -7.512674,-0.620128 -4.647242,-0.524667 -8.428492,-0.950327 -10.734169,0.717283 A 31.999817,31.999889 0 0 0 67.999974,90.999944 31.999817,31.999889 0 0 0 99.999903,58.999971 31.999817,31.999889 0 0 0 67.999974,26.999945 Z m 7.137508,18.567283 c -2.504689,-0.07985 -4.893036,0.804013 -6.724096,2.513533 -1.830221,1.703858 -2.877584,4.026786 -2.970346,6.529841 -0.173037,5.163643 3.881037,9.514542 9.040223,9.704777 2.516066,0.08446 4.899232,-0.799991 6.730298,-2.519724 1.825562,-1.698566 2.872926,-4.0216 2.970345,-6.524655 0.177271,-5.15904 -3.881682,-9.519094 -9.046424,-9.703772 z m -0.07855,2.761605 c 3.609425,0.128058 6.43534,3.160173 6.313791,6.768548 -0.05572,1.740158 -0.789798,3.353264 -2.064973,4.549547 -1.277033,1.190727 -2.9461,1.809903 -4.697367,1.756986 -3.601065,-0.13282 -6.427069,-3.16848 -6.30552,-6.777807 0.05292,-1.746668 0.801556,-3.359933 2.071175,-4.550659 1.269572,-1.190727 2.930674,-1.809744 4.682894,-1.746615 z m 1.069694,3.281404 c -1.60373,0 -2.899029,0.863068 -2.899029,1.93685 0,1.063621 1.295299,1.931663 2.899029,1.931663 1.602783,0 2.903168,-0.868095 2.903168,-1.931663 0,-1.073782 -1.299485,-1.93685 -2.903168,-1.93685 z" />
<path fill="#ffffff" d="M 68.000027,28.00015 A 31.999817,31.999889 0 0 0 42.807913,40.329056 c 3.90311,1.042772 6.665667,1.938966 7.493036,2.216936 0.01296,-0.507628 0.09715,-5.047756 0.09715,-5.047756 0,0 0.01069,-0.103928 0.06615,-0.158115 0.07142,-0.06974 0.174666,-0.04868 0.174666,-0.04868 1.026578,0.148695 22.938579,3.396656 32.174604,8.778792 1.140608,0.667277 1.703605,1.376728 2.407074,2.095969 2.553108,2.640532 5.926657,13.62012 6.288983,15.884258 0.01423,0.08895 -0.09569,0.185578 -0.142626,0.222196 h -0.0011 c -0.262308,0.204681 -0.547974,0.417511 -0.834052,0.607693 -2.185448,1.466263 -7.220211,4.990659 -13.679714,4.415246 -5.802277,-0.51329 -13.382834,-3.841578 -22.52149,-9.862945 0.89852,2.103748 1.783822,4.214004 2.669589,6.323096 1.323438,0.687386 14.097281,7.196483 20.401743,7.069325 5.077847,-0.10578 10.508681,-2.582536 12.681318,-3.890208 0,0 0.477452,-0.287654 0.685224,-0.127105 0.227277,0.175576 0.164401,0.444604 0.110585,0.719346 -0.133662,0.623674 -0.437959,1.761537 -0.644911,2.301656 l -0.174668,0.440265 c -0.248703,0.666324 -0.487421,1.285659 -0.947743,1.667081 -1.279885,1.163792 -3.322681,2.089724 -6.523589,3.480899 C 77.640458,79.581289 69.613299,80.9577 62.16056,80.910339 59.491282,80.850911 56.91242,80.554738 54.647922,80.290208 50.00068,79.765541 46.21943,79.339881 43.913753,81.007491 A 31.999817,31.999889 0 0 0 68.000001,92.000044 31.999817,31.999889 0 0 0 99.99993,60.000071 31.999817,31.999889 0 0 0 68.000001,28.000045 Z m 7.137508,18.567283 c -2.504689,-0.07985 -4.893036,0.804013 -6.724096,2.513533 -1.830221,1.703858 -2.877584,4.026786 -2.970346,6.529841 -0.173037,5.163643 3.881037,9.514542 9.040223,9.704777 2.516066,0.08446 4.899232,-0.799991 6.730298,-2.519724 1.825562,-1.698566 2.872926,-4.0216 2.970345,-6.524655 0.177271,-5.15904 -3.881682,-9.519094 -9.046424,-9.703772 z m -0.07855,2.761605 c 3.609425,0.128058 6.43534,3.160173 6.313791,6.768548 -0.05572,1.740158 -0.789798,3.353264 -2.064973,4.549547 -1.277033,1.190727 -2.9461,1.809903 -4.697367,1.756986 -3.601065,-0.13282 -6.427069,-3.16848 -6.30552,-6.777807 0.05292,-1.746668 0.801556,-3.359933 2.071175,-4.550659 1.269572,-1.190727 2.930674,-1.809744 4.682894,-1.746615 z m 1.069694,3.281404 c -1.60373,0 -2.899029,0.863068 -2.899029,1.93685 0,1.063621 1.295299,1.931663 2.899029,1.931663 1.602783,0 2.903168,-0.868095 2.903168,-1.931663 0,-1.073782 -1.299485,-1.93685 -2.903168,-1.93685 z" />
</svg>
