<svg width="16" height="16" version="1.1" viewBox="0 0 16 16" xmlns="http://www.w3.org/2000/svg">
 <g transform="translate(0 -292.77)" fill-rule="evenodd">
  <path transform="translate(0 292.77)" d="m8 0c-2.9688 0-5.5431 1.6049-6.9238 3.9941l3.4629 5.998 0.0058594-0.0039063c-0.33743-0.587-0.54492-1.2599-0.54492-1.9883 0-2.216 1.784-4 4-4h6.918l0.007812-0.0039062c-1.3803-2.3906-3.956-3.9961-6.9258-3.9961zm-6.9238 3.9941c-0.16618 0.28757-0.31369 0.58593-0.44336 0.89453 0.12852-0.30638 0.27614-0.60523 0.44336-0.89453zm-0.81445 2.002c-0.063348 0.24696-0.11637 0.49818-0.15625 0.75391 0.040321-0.25396 0.09178-0.50523 0.15625-0.75391zm-0.19336 1.002c-0.031547 0.25414-0.049317 0.51231-0.056641 0.77344 0.0074787-0.25874 0.024224-0.51758 0.056641-0.77344zm-0.066406 0.96289c-6.3137e-5 0.013175-0.0019531 0.025872-0.0019531 0.039062 0 0.31231 0.022151 0.61909 0.056641 0.92188-0.037536-0.3208-0.05629-0.64074-0.054688-0.96094zm0.076172 1.1016c0.038415 0.29125 0.093448 0.5771 0.16211 0.85742-0.070883-0.28406-0.12335-0.57082-0.16211-0.85742zm0.19727 0.99805c0.091086 0.3385 0.20625 0.67364 0.34375 1.0039-0.13429-0.32476-0.25247-0.65856-0.34375-1.0039zm0.34375 1.0039c0.093646 0.22647 0.20902 0.4391 0.32227 0.6543-0.11418-0.21652-0.22997-0.43262-0.32227-0.6543zm0.32227 0.6543c0.047723 0.090496 0.083121 0.18399 0.13477 0.27344 0.0068955 0.011943 0.016491 0.021308 0.023438 0.033203-0.057828-0.099177-0.10459-0.20477-0.1582-0.30664zm0.1582 0.30664c0.18369 0.31503 0.38946 0.61488 0.61328 0.90039-0.22081-0.2833-0.42705-0.5815-0.61328-0.90039zm0.67383 0.98828c0.24745 0.30711 0.51472 0.59779 0.80469 0.86523-0.286-0.26475-0.5556-0.55416-0.80469-0.86523zm1.4141 1.373c0.19915 0.15005 0.40407 0.29066 0.61719 0.42188-0.21156-0.1305-0.41738-0.27099-0.61719-0.42188zm0.64844 0.44141c0.20201 0.12309 0.40966 0.23664 0.62305 0.3418-0.21134-0.10449-0.42088-0.21838-0.62305-0.3418zm0.71484 0.38672c0.19014 0.090687 0.38386 0.17422 0.58203 0.25-0.1972-0.075792-0.39101-0.15859-0.58203-0.25zm0.74609 0.30859c0.18385 0.065711 0.36872 0.12728 0.55859 0.17969-0.18849-0.052523-0.37433-0.11344-0.55859-0.17969zm0.75586 0.23047c0.17137 0.042615 0.34392 0.081857 0.51953 0.11328-0.1743-0.031708-0.34783-0.070112-0.51953-0.11328zm0.84375 0.16211c0.14048 0.019266 0.28107 0.038852 0.42383 0.050781-0.1422-0.012166-0.28272-0.031057-0.42383-0.050781zm0.85156 0.072265c0.084408 0.00261 0.16689 0.011719 0.25195 0.011719v-0.007812c-0.084073-4e-6 -0.16806-0.001251-0.25195-0.003907z"/>
  <path transform="translate(0 292.77)" d="m8.2051-0.0039062c-0.067876-0.0018334-0.13533 0.0040042-0.20312 0.0039062 0.36876 8.8644e-5 0.73088 0.02619 1.0859 0.074219-0.29424-0.041037-0.58844-0.070174-0.88281-0.078125zm-0.21289 0.0039062c-0.26615-5.8021e-5 -0.53129 0.014666-0.79492 0.041016 0.26143-0.025824 0.52654-0.040759 0.79492-0.041016zm-0.85156 0.046875c-0.23605 0.025293-0.47073 0.061354-0.70312 0.10742 0.23076-0.045338 0.46557-0.082259 0.70312-0.10742zm1.9727 0.03125c0.29658 0.042337 0.59114 0.10493 0.88477 0.18164-0.28938-0.074218-0.58339-0.13988-0.88477-0.18164zm-2.8145 0.10547c-0.20793 0.045059-0.41353 0.096739-0.61719 0.1582 0.20238-0.060783 0.4083-0.11329 0.61719-0.1582zm4.0117 0.16406c0.17588 0.052879 0.34712 0.11527 0.51758 0.17969-0.17171-0.065602-0.3437-0.12659-0.51758-0.17969zm-4.7949 0.048828c-0.18254 0.059478-0.363 0.12276-0.54102 0.19531 0.17733-0.072143 0.35752-0.13576 0.54102-0.19531zm-0.75195 0.28711c-0.16297 0.071956-0.32421 0.14754-0.48242 0.23047 0.15724-0.082363 0.31917-0.15847 0.48242-0.23047zm6.4824 0.0078125c0.11114 0.049754 0.22028 0.11078 0.33008 0.16602-0.11024-0.055265-0.21697-0.11578-0.33008-0.16602zm-7.1875 0.3457c-0.15224 0.086105-0.30238 0.17512-0.44922 0.27148 0.14627-0.09592 0.29643-0.18512 0.44922-0.27148zm8.332 0.29102c0.12847 0.084776 0.25775 0.1679 0.38086 0.25977-0.12261-0.090957-0.2518-0.17494-0.38086-0.25977zm-8.9746 0.11328c-0.14122 0.098764-0.2788 0.20216-0.41406 0.31055 0.13477-0.10781 0.27232-0.21151 0.41406-0.31055zm9.6836 0.4082c0.14161 0.11775 0.281 0.2381 0.41406 0.36523-0.13289-0.12624-0.27123-0.24721-0.41406-0.36523zm-10.328 0.095703c-0.10925 0.094548-0.21767 0.18998-0.32227 0.29102 0.10418-0.10034 0.21274-0.19643 0.32227-0.29102zm11.002 0.52539c0.18123 0.18967 0.35359 0.38691 0.51562 0.59375-0.16146-0.20541-0.33262-0.40324-0.51562-0.59375zm-11.592 0.039062c-0.087652 0.093206-0.17413 0.18711-0.25781 0.28516 0.083362-0.097301 0.16992-0.19202 0.25781-0.28516zm-0.5332 0.62891c-0.066279 0.086893-0.13213 0.17344-0.19531 0.26367 0.062985-0.089711 0.12878-0.17674 0.19531-0.26367zm12.717 0.015625c0.19435 0.25492 0.36841 0.52294 0.5293 0.79688-0.16178-0.27581-0.3368-0.54357-0.5293-0.79688zm-13.176 0.6543c-0.040114 0.065194-0.086473 0.12468-0.125 0.19141l0.0058594 0.0039062c0.038163-0.06626 0.07915-0.13028 0.11914-0.19531zm6.8105 0.19141c2.216 0 4 1.784 4 4 0 0.73147-0.2087 1.4074-0.54883 1.9961l0.005859 0.0039062-0.13867 0.24023-3.3184 5.75v0.009766c2.7599-0.001023 5.4372-1.4285 6.9219-4 1.4856-2.5731 1.3819-5.6088 0-8h-6.9219z" opacity=".55"/>
  <path transform="translate(0 292.77)" d="m7.9922 0c-0.26839 2e-4 -0.53349 0.015216-0.79492 0.041016 0.26363-0.0263 0.52877-0.041076 0.79492-0.041016zm-0.85156 0.046875c-0.23755 0.02512-0.47236 0.062122-0.70312 0.10742 0.2324-0.04602 0.46708-0.082122 0.70312-0.10742zm-0.8418 0.13672c-0.20888 0.04491-0.41481 0.097403-0.61719 0.1582 0.20366-0.0615 0.40926-0.1131 0.61719-0.1582zm4.0117 0.16406c0.17388 0.0531 0.34587 0.11409 0.51758 0.17969-0.17045-0.06442-0.3417-0.12679-0.51758-0.17969zm-4.7949 0.048828c-0.18349 0.05955-0.36369 0.12321-0.54102 0.19531 0.17802-0.07256 0.35848-0.13581 0.54102-0.19531zm-0.75195 0.28711c-0.16325 0.07199-0.32518 0.14807-0.48242 0.23047 0.15821-0.08294 0.31945-0.15847 0.48242-0.23047zm-0.70508 0.35352c-0.15279 0.08637-0.30295 0.17558-0.44922 0.27148 0.14684-0.09637 0.29698-0.18538 0.44922-0.27148zm8.332 0.29102c0.12906 0.08482 0.25825 0.16877 0.38086 0.25977-0.12311-0.09186-0.25239-0.17497-0.38086-0.25977zm-8.9746 0.11328c-0.14174 0.09904-0.2793 0.20274-0.41406 0.31055 0.13527-0.10839 0.27284-0.21175 0.41406-0.31055zm9.6836 0.4082c0.14284 0.11803 0.28117 0.23899 0.41406 0.36523-0.13307-0.12714-0.27246-0.24748-0.41406-0.36523zm-10.328 0.095703c-0.10952 0.09459-0.21808 0.19069-0.32227 0.29102 0.1046-0.10103 0.21302-0.19652 0.32227-0.29102zm11.002 0.52539c0.18301 0.1905 0.35417 0.38834 0.51562 0.59375-0.16203-0.20684-0.3344-0.40409-0.51562-0.59375zm-11.592 0.039062c-0.08789 0.09314-0.17445 0.18786-0.25781 0.28516 0.083679-0.09804 0.17016-0.19196 0.25781-0.28516zm-0.5332 0.62891c-0.066533 0.08694-0.13233 0.17397-0.19531 0.26367 0.063183-0.09023 0.12903-0.17677 0.19531-0.26367zm13.283 0.85352-0.013672 0.0078125h0.003906c1.0361 1.7929 1.3524 3.9472 0.82031 5.998 0.51081-1.9573 0.28609-4.1064-0.81055-6.0059zm-13.855 0.0019531c-0.0019132 0.0032892-0.0039597 0.0064654-0.0058594 0.0097656-1.3768 2.3898-1.4778 5.4185 0.0058594 7.9883 1.4849 2.572 4.1633 3.9999 6.9238 4v-0.001954l3.3184-5.75c-0.71742 1.0637-1.9334 1.7598-3.3184 1.7598-1.4877 0-2.7659-0.81274-3.4551-2.0117l-0.0058594 0.0039063-3.4629-5.998zm10.242 6.2461 0.13867-0.24023-0.005859-0.0039062c-0.046283 0.080108-0.081254 0.1677-0.13281 0.24414zm4.4238-0.23828c-0.17464 0.67175-0.44309 1.3319-0.80469 1.9648 0.3561-0.6189 0.62541-1.2792 0.80469-1.9648zm-0.80469 1.9648c-0.008878 0.01543-0.016406 0.031498-0.025391 0.046875 0.002853-0.004915 0.006923-0.008748 0.009766-0.013672 0.006215-0.010765 0.009465-0.022422 0.015625-0.033203zm-0.025391 0.046875c-0.16138 0.27807-0.34026 0.53954-0.5293 0.78906 0.19208-0.25377 0.37016-0.51671 0.5293-0.78906zm-0.5293 0.78906c-0.034882 0.046087-0.07147 0.09131-0.10742 0.13672 0.036023-0.045459 0.072258-0.090304 0.10742-0.13672zm-0.10742 0.13672c-0.19263 0.24309-0.39299 0.47669-0.60742 0.69336 0.21926-0.21926 0.4175-0.45347 0.60742-0.69336zm-0.75977 0.84375c-0.16802 0.16083-0.34574 0.30905-0.52539 0.45312 0.18255-0.14513 0.35845-0.29493 0.52539-0.45312zm-0.79492 0.66992c-0.19636 0.14387-0.40011 0.27399-0.60742 0.39844 0.20953-0.12546 0.41362-0.25756 0.60742-0.39844zm-1.1328 0.68164c-0.13759 0.069106-0.27496 0.1383-0.41602 0.19922 0.14014-0.060811 0.27798-0.12975 0.41602-0.19922zm-0.8125 0.35547c-0.17664 0.065328-0.35449 0.127-0.53516 0.17969 0.17969-0.052782 0.3577-0.11362 0.53516-0.17969zm-0.86914 0.27148c-0.23843 0.058475-0.47953 0.1042-0.72266 0.14062 0.2417-0.036415 0.48287-0.081371 0.72266-0.14062zm-0.90625 0.17383c-0.30489 0.038433-0.61309 0.055452-0.92188 0.058594 0.30718-0.003008 0.61446-0.019611 0.92188-0.058594z" opacity=".7"/>
  <rect x="5" y="297.77" width="6" height="6" ry="3" opacity=".85"/>
 </g>
</svg>
