<?xml version="1.0" encoding="UTF-8" standalone="no"?>
<!-- Created with Inkscape (http://www.inkscape.org/) -->

<svg
   xmlns:dc="http://purl.org/dc/elements/1.1/"
   xmlns:cc="http://creativecommons.org/ns#"
   xmlns:rdf="http://www.w3.org/1999/02/22-rdf-syntax-ns#"
   xmlns:svg="http://www.w3.org/2000/svg"
   xmlns="http://www.w3.org/2000/svg"
   xmlns:xlink="http://www.w3.org/1999/xlink"
   xmlns:sodipodi="http://sodipodi.sourceforge.net/DTD/sodipodi-0.dtd"
   xmlns:inkscape="http://www.inkscape.org/namespaces/inkscape"
   width="48px"
   height="48px"
   id="svg7241"
   sodipodi:version="0.32"
   inkscape:version="0.92.2 5c3e80d, 2017-08-06"
   sodipodi:docname="gvim.svg"
   inkscape:output_extension="org.inkscape.output.svg.inkscape"
   version="1.1"
   enable-background="new">
  <defs
     id="defs7243">
    <linearGradient
       id="linearGradient5471">
      <stop
         id="stop5467"
         offset="0"
         style="stop-color:#5cc300;stop-opacity:1" />
      <stop
         id="stop5469"
         offset="1"
         style="stop-color:#fbff99;stop-opacity:1" />
    </linearGradient>
    <linearGradient
       id="linearGradient3163">
      <stop
         style="stop-color:#f9f9f9;stop-opacity:1;"
         offset="0"
         id="stop3165" />
      <stop
         style="stop-color:#bababa;stop-opacity:1;"
         offset="1"
         id="stop3167" />
    </linearGradient>
    <linearGradient
       id="linearGradient3135">
      <stop
         style="stop-color:#ceffab;stop-opacity:1;"
         offset="0"
         id="stop3137" />
      <stop
         style="stop-color:#ffffff;stop-opacity:1;"
         offset="1"
         id="stop3139" />
    </linearGradient>
    <linearGradient
       id="linearGradient3208">
      <stop
         style="stop-color:#2e3436;stop-opacity:0.54000002;"
         offset="0"
         id="stop3210" />
      <stop
         style="stop-color:#2e3436;stop-opacity:0;"
         offset="1"
         id="stop3212" />
    </linearGradient>
    <radialGradient
       inkscape:collect="always"
       xlink:href="#linearGradient3208"
       id="radialGradient3214"
       cx="23.82353"
       cy="36.882355"
       fx="23.82353"
       fy="36.882355"
       r="22.121323"
       gradientTransform="matrix(1.0849261,8.7466017e-8,0,0.36164205,-1.8467693,26.661789)"
       gradientUnits="userSpaceOnUse" />
    <linearGradient
       inkscape:collect="always"
       xlink:href="#linearGradient3135"
       id="linearGradient5146"
       gradientUnits="userSpaceOnUse"
       gradientTransform="matrix(0.93600787,0,0,0.93600787,6.8726922,-34.54358)"
       x1="8.8010654"
       y1="57.022343"
       x2="-24.392254"
       y2="90.21566" />
    <linearGradient
       inkscape:collect="always"
       xlink:href="#linearGradient5471"
       id="linearGradient5170"
       gradientUnits="userSpaceOnUse"
       gradientTransform="matrix(0.8710372,0,0,0.8710372,6.395574,-29.789872)"
       x1="9.7050638"
       y1="56.118343"
       x2="-36.172619"
       y2="101.9959" />
    <linearGradient
       inkscape:collect="always"
       xlink:href="#linearGradient3163"
       id="linearGradient5493"
       x1="22.422308"
       y1="0.11467267"
       x2="22.422308"
       y2="41.833973"
       gradientUnits="userSpaceOnUse" />
  </defs>
  <sodipodi:namedview
     id="base"
     pagecolor="#ffffff"
     bordercolor="#666666"
     borderopacity="1.0"
     inkscape:pageopacity="0.0"
     inkscape:pageshadow="2"
     inkscape:zoom="8"
     inkscape:cx="19.3302"
     inkscape:cy="24.0047"
     inkscape:current-layer="layer2"
     showgrid="true"
     inkscape:grid-bbox="true"
     inkscape:document-units="px"
     inkscape:window-width="1050"
     inkscape:window-height="1593"
     inkscape:window-x="0"
     inkscape:window-y="0"
     showguides="true"
     inkscape:pagecheckerboard="false"
     inkscape:snap-grids="true"
     inkscape:snap-page="false"
     inkscape:snap-smooth-nodes="true"
     inkscape:snap-intersection-paths="false"
     inkscape:object-paths="true"
     inkscape:window-maximized="1"
     inkscape:snap-global="true">
    <inkscape:grid
       type="xygrid"
       id="grid3749"
       empspacing="2" />
  </sodipodi:namedview>
  <metadata
     id="metadata7246">
    <rdf:RDF>
      <cc:Work
         rdf:about="">
        <dc:format>image/svg+xml</dc:format>
        <dc:type
           rdf:resource="http://purl.org/dc/dcmitype/StillImage" />
        <dc:title />
        <cc:license
           rdf:resource="http://creativecommons.org/publicdomain/zero/1.0/" />
        <dc:date>2018-04-03</dc:date>
        <dc:creator>
          <cc:Agent>
            <dc:title>Stefan Brüns</dc:title>
          </cc:Agent>
        </dc:creator>
        <dc:contributor>
          <cc:Agent>
            <dc:title>Based on
https://github.com/dbb/vim-icon-updater
which is based on
http://tuziibanez.deviantart.com/art/Tango-Miscs-50664382</dc:title>
          </cc:Agent>
        </dc:contributor>
      </cc:Work>
      <cc:License
         rdf:about="http://creativecommons.org/publicdomain/zero/1.0/">
        <cc:permits
           rdf:resource="http://creativecommons.org/ns#Reproduction" />
        <cc:permits
           rdf:resource="http://creativecommons.org/ns#Distribution" />
        <cc:permits
           rdf:resource="http://creativecommons.org/ns#DerivativeWorks" />
      </cc:License>
    </rdf:RDF>
  </metadata>
  <g
     inkscape:groupmode="layer"
     id="layer4"
     inkscape:label="Shadow"
     style="display:inline"
     sodipodi:insensitive="true">
    <ellipse
       transform="translate(0,-2.8610232e-6)"
       style="display:inline;opacity:1;fill:url(#radialGradient3214)"
       id="path3206"
       cx="24"
       cy="40"
       rx="24"
       ry="7.999999" />
  </g>
  <g
     id="layer1"
     inkscape:label="Diamond"
     inkscape:groupmode="layer"
     style="display:inline">
    <rect
       style="stroke:none"
       id="rect5045"
       width="33.566639"
       height="33.566639"
       x="-16.78429"
       y="17.15799"
       transform="matrix(0.70709829,-0.70711527,0.70709829,0.70711527,0,0)"
       ry="1.7792505" />
    <rect
       ry="1.3635954"
       transform="matrix(0.70709829,-0.70711527,0.70709829,0.70711527,0,0)"
       y="17.983631"
       x="-15.95865"
       height="31.915358"
       width="31.915358"
       id="use5047"
       style="opacity:1;fill:url(#linearGradient5146)" />
    <rect
       ry="0.92939949"
       transform="matrix(0.70709829,-0.70711527,0.70709829,0.70711527,0,0)"
       y="19.091293"
       x="-14.850987"
       height="29.700033"
       width="29.700033"
       id="use5097"
       style="opacity:1;fill:url(#linearGradient5170)" />
  </g>
  <g
     inkscape:groupmode="layer"
     id="layer2"
     inkscape:label="V_outline"
     style="display:none">
    <path
       style="display:inline"
       d="M 6,2 C 4,2 3,3 3,5 v 1 c 0,1.79687 1.14062,3.01562 3,3 v 32 c 0.0169,2.6158 3.22531,4.0304 5.1301,2.1255 C 22.5331,31.7225 33.6012,19.9895 44.8368,8.42144 46.0411,7.18144 46,6.89757 46,6 V 5 C 46,3.24174 44.7418,2 43,2 H 32 c -1.7418,0 -3,1.24174 -3,3 v 1 c 0,1.81752 1.4816,3 3,3 L 19,22 V 9 c 1.7418,0 3,-1.23518 3,-3 V 5 C 22,3.23518 20.7418,2 19,2 Z"
       id="path5187"
       inkscape:connector-curvature="0"
       sodipodi:nodetypes="sssccsscssssscccssss" />
  </g>
  <g
     inkscape:groupmode="layer"
     id="layer5"
     inkscape:label="V_extend"
     style="display:inline">
    <use
       x="0"
       y="0"
       xlink:href="#path5187"
       id="use5197"
       transform="translate(1,1)"
       width="100%"
       height="100%"
       style="display:inline;opacity:1;fill:#383838" />
    <use
       style="display:inline;fill:#383838;stroke:#383838;stroke-width:0.05"
       height="100%"
       width="100%"
       transform="translate(0.5,0.5)"
       id="use5442"
       xlink:href="#path5187"
       y="0"
       x="0" />
  </g>
  <g
     inkscape:groupmode="layer"
     id="layer3"
     inkscape:label="V"
     style="display:inline">
    <use
       x="0"
       y="0"
       xlink:href="#path5187"
       id="use5232"
       style="fill:#525252"
       width="100%"
       height="100%" />
    <path
       d="M 6.1325825,3 H 19 c 1.120486,0 1.867417,0.8014079 1.867417,2 v 1 c 0,1.1306454 -0.764389,2 -1.867417,2 H 18.490654 C 18.191792,8 18,8.249232 18,8.490654 v 14.763252 c 0,0.482194 0.612798,0.565549 0.856064,0.322283 L 33.650727,8.8262294 C 33.892146,8.5459559 33.736076,7.9947708 33.296876,7.9960937 L 32,8 C 30.817015,8 30,7.2456117 30,6 V 5 c 0,-1.2800743 0.817016,-2 2,-2 h 11 c 1.182985,0 2,0.7948489 2,2 v 1 c 0,0.5300443 -0.164647,0.9976558 -0.53125,1.375 L 10.411755,42.429844 C 8.8239433,43.671071 7.2572611,42.613693 7.21875,41.09375 L 7.1911254,8.4807184 C 7.1911254,8.236743 7.0208057,8 6.700572,8 H 6 C 4.8328008,8 4.1325825,7.1122786 4.1325825,6 V 5 c 0,-1.1835182 0.7345656,-2 2,-2 z"
       id="path3198"
       inkscape:connector-curvature="0"
       sodipodi:nodetypes="sssssscsccscscssscsccccssss"
       style="fill:#ffffff;fill-opacity:1" />
    <path
       sodipodi:type="inkscape:offset"
       inkscape:radius="-1.125"
       inkscape:original="M 6.13281 3 C 4.86738 3 4.13281 3.81648 4.13281 5 L 4.13281 6 C 4.13281 7.11228 4.8328 8 6 8 L 6.70117 8 C 7.02141 8 7.19141 8.23649 7.19141 8.48047 L 7.21875 41.0938 C 7.25726 42.6137 8.8243 43.6709 10.4121 42.4297 L 44.4688 7.375 C 44.8354 6.99766 45 6.53004 45 6 L 45 5 C 45 3.79485 44.183 3 43 3 L 32 3 C 30.817 3 30 3.71993 30 5 L 30 6 C 30 7.24561 30.817 8 32 8 L 33.2969 7.99609 C 33.7361 7.99477 33.8918 8.5459 33.6504 8.82617 L 18.8555 23.5762 C 18.6122 23.8194 18 23.7361 18 23.2539 L 18 8.49023 C 18 8.24881 18.1914 8 18.4902 8 L 19 8 C 20.103 8 20.8672 7.13065 20.8672 6 L 20.8672 5 C 20.8672 3.80141 20.1205 3 19 3 L 6.13281 3 z "
       xlink:href="#path3198"
       style="fill:url(#linearGradient5493)"
       id="path5477"
       inkscape:href="#path3198"
       d="M 6.1328125,4.125 C 5.7420523,4.125 5.5761131,4.2252412 5.4648438,4.3398438 5.3535744,4.4544463 5.2578125,4.6409894 5.2578125,5 v 1 c 0,0.3201412 0.097849,0.5427126 0.2109375,0.6699219 C 5.5818387,6.7971311 5.7016092,6.875 6,6.875 h 0.7011719 c 0.4370552,0 0.9018862,0.1952023 1.1933593,0.5117188 0.2914732,0.3165164 0.421875,0.7104645 0.421875,1.09375 L 8.34375,41.064453 c 0.00964,0.380327 0.199212,0.629342 0.3964844,0.728516 0.1937568,0.09741 0.449737,0.144378 0.9609375,-0.246094 L 43.662109,6.5917969 C 43.822337,6.4268743 43.875,6.2970727 43.875,6 V 5 C 43.875,4.6516504 43.77594,4.4722181 43.650391,4.3476562 43.524841,4.2230944 43.33953,4.125 43,4.125 H 32 c -0.363279,0 -0.550087,0.096916 -0.662109,0.2050781 C 31.225868,4.4382398 31.125,4.5993091 31.125,5 v 1 c 0,0.3768378 0.100418,0.5464082 0.21875,0.6621094 C 31.462082,6.7778106 31.647645,6.875 32,6.875 l 1.292969,-0.00391 c 0.69056,-0.00208 1.298811,0.5204421 1.492187,1.0449218 0.193376,0.5244797 0.153545,1.1374924 -0.283203,1.6445313 a 1.1251125,1.1251125 0 0 1 -0.05664,0.0625 L 19.650391,24.371094 c -0.500711,0.50071 -1.067087,0.551336 -1.613282,0.40039 C 17.490915,24.620539 16.875,23.971111 16.875,23.253906 V 8.4902344 C 16.875,7.6542974 17.566973,6.875 18.490234,6.875 H 19 c 0.511913,0 0.742187,-0.2512509 0.742188,-0.875 V 5 c 0,-0.3656776 -0.1028,-0.565745 -0.210938,-0.6816406 C 19.423112,4.2024637 19.292031,4.125 19,4.125 Z" />
  </g>
</svg>
