/* XPM */
static char * ballerburg_xpm[] = {
"32 32 87 1",
" 	c None",
".	c #FFFFFF",
"+	c #FDFDFD",
"@	c #C8C8C8",
"#	c #000000",
"$	c #272727",
"%	c #CCCCCC",
"&	c #C6C6C6",
"*	c #C1C1C1",
"=	c #171717",
"-	c #111111",
";	c #212121",
">	c #D6D6D6",
",	c #5D5D5D",
"'	c #202020",
")	c #DADADA",
"!	c #5E5E5E",
"~	c #343434",
"{	c #2F2F2F",
"]	c #D1D1D1",
"^	c #CBCBCB",
"/	c #DDDDDD",
"(	c #535353",
"_	c #303030",
":	c #ACACAC",
"<	c #9C9C9C",
"[	c #242424",
"}	c #020202",
"|	c #262626",
"1	c #FEFEFE",
"2	c #D7D7D7",
"3	c #D9D9D9",
"4	c #F4F4F4",
"5	c #1A1A1A",
"6	c #DEDEDE",
"7	c #4C4C4C",
"8	c #474747",
"9	c #444444",
"0	c #D5D5D5",
"a	c #DFDFDF",
"b	c #C0C0C0",
"c	c #C5C5C5",
"d	c #CFCFCF",
"e	c #D0D0D0",
"f	c #292929",
"g	c #626262",
"h	c #232323",
"i	c #4E4E4E",
"j	c #0D0D0D",
"k	c #E2E2E2",
"l	c #D2D2D2",
"m	c #DBDBDB",
"n	c #555555",
"o	c #1B1B1B",
"p	c #353535",
"q	c #EEEEEE",
"r	c #E0E0E0",
"s	c #E4E4E4",
"t	c #A8A8A8",
"u	c #A2A2A2",
"v	c #2D2D2D",
"w	c #2E2E2E",
"x	c #383838",
"y	c #222222",
"z	c #E5E5E5",
"A	c #D4D4D4",
"B	c #A9A9A9",
"C	c #AEAEAE",
"D	c #373737",
"E	c #2C2C2C",
"F	c #333333",
"G	c #686868",
"H	c #D8D8D8",
"I	c #070707",
"J	c #EAEAEA",
"K	c #0B0B0B",
"L	c #393939",
"M	c #636363",
"N	c #060606",
"O	c #2B2B2B",
"P	c #2A2A2A",
"Q	c #161616",
"R	c #252525",
"S	c #282828",
"T	c #F3F3F3",
"U	c #C4C4C4",
"V	c #CACACA",
"................................",
"................................",
"................................",
"..............+.................",
"............@#.$#%&*............",
"............@#$##=-&............",
"................................",
"..............;>.,,.............",
"..............').!!.............",
".....,~~,...>'.!{)>]............",
".....~##~...^#/(_:<&............",
".....[}#|..12##3.|#>............",
"......#3..4)5.67#>.89%..........",
"......#^..0#|.#a#@bcd#..........",
"......#e.$f..+......^#..........",
".....g#=h#f.i.jkjl%m3#n.........",
".....o....3#p......|##q####@....",
".....rf~~~(/|.;s;>ltu#v#6f#^....",
"......#wxxg.y.$z$2ABCDpE._F>....",
"......#wGGg.y.$z$2H}IvJ$.;......",
"......$KLM,.y.;s;>2NK$s;.y......",
".......pF...;......OP....Q......",
".......~Ln=#g.jkjl%m>#z'#21.....",
".......|f.6#.+......^#..#@......",
"........>##}R.###%&&e#a#........",
"........3###KL###fSSf#v#........",
".....y#####################^....",
"....y:^^^^^^^^^^^^^^^^^^^^d(,...",
"TUcA#<ccllccccccUTTUccccc*.{hVcc",
"TUcc%&ccllccccccUTTUccccc*.>Vccc",
"................................",
"................................"};
