/* XPM */
static char * littlewizard_xpm[] = {
"19 32 60 1",
" 	c None",
".	c #352C77",
"+	c #3546BF",
"@	c #006F7C",
"#	c #4842AD",
"$	c #78367D",
"%	c #5A4398",
"&	c #564B84",
"*	c #A82E4D",
"=	c #4150BA",
"-	c #00845A",
";	c #8C396F",
">	c #DA251A",
",	c #4C53B3",
"'	c #079344",
")	c #D82E2A",
"!	c #5F5AA7",
"~	c #D53A31",
"{	c #D13F3B",
"]	c #259557",
"^	c #69698E",
"/	c #6567A6",
"(	c #407CAD",
"_	c #7E64A0",
":	c #6F7796",
"<	c #8C6D9A",
"[	c #D35754",
"}	c #998769",
"|	c #D87247",
"1	c #918D7C",
"2	c #A7905D",
"3	c #DD746E",
"4	c #5AB679",
"5	c #BE7E95",
"6	c #A48C9F",
"7	c #74B082",
"8	c #8FA0BC",
"9	c #E57F86",
"0	c #959ED8",
"a	c #9CB6C4",
"b	c #A6B0DA",
"c	c #ECA4A8",
"d	c #E7BA46",
"e	c #CCC1A1",
"f	c #F0BBB0",
"g	c #C8CCDC",
"h	c #F8DC17",
"i	c #EBC6BC",
"j	c #F6C8B1",
"k	c #F5C8B8",
"l	c #F5CABF",
"m	c #FDF303",
"n	c #D2E8DA",
"o	c #DDE0EC",
"p	c #ECF16C",
"q	c #F9F634",
"r	c #F1DEDC",
"s	c #FBF560",
"t	c #F5EDED",
"u	c #FCFCF9",
"                   ",
"       =           ",
"       !!          ",
"      ,<,          ",
"      =++=         ",
"      ,2,=         ",
"      +^+/,        ",
"     !!+#:+        ",
"     ,6+,}+=[      ",
"     +++#+_!;{     ",
"    =1^+/+!!!{  && ",
"    #!,=,+,^};  .. ",
"   !/=+_<+/#$>{ :( ",
"3{>)*$###%_59{~  a ",
"  {~))~~~fruuui ia ",
"  )>>>>>[tuuuobrra ",
"  ~>>>>3tuuuuoboki ",
"  {))>{uuuutgtorki ",
"  {>)>[ug0utccrkk  ",
"  {>>~~tgbt9{e7k   ",
"   )>~)3tuun7']    ",
"  kc3  1]''--'     ",
"  kjkkje'''@@'     ",
"   kkl   ]'''4     ",
"          44ps     ",
"         ppsqm     ",
"         qmmqm     ",
"         dqh||     ",
"         [{{6(     ",
"         c6(88     ",
"         c68c      ",
"         ccc       "};
