<?xml version="1.0" encoding="UTF-8" standalone="no"?>
<!-- Generator: Adobe Illustrator 13.0.0, SVG Export Plug-In . SVG Version: 6.00 Build 14948)  -->
<svg
   xmlns:dc="http://purl.org/dc/elements/1.1/"
   xmlns:cc="http://creativecommons.org/ns#"
   xmlns:rdf="http://www.w3.org/1999/02/22-rdf-syntax-ns#"
   xmlns:svg="http://www.w3.org/2000/svg"
   xmlns="http://www.w3.org/2000/svg"
   xmlns:sodipodi="http://sodipodi.sourceforge.net/DTD/sodipodi-0.dtd"
   xmlns:inkscape="http://www.inkscape.org/namespaces/inkscape"
   version="1.0"
   id="Layer_2"
   x="0px"
   y="0px"
   width="290"
   height="211"
   viewBox="0 0 317.984 239.988"
   enable-background="new 0 0 317.984 239.988"
   xml:space="preserve"
   sodipodi:version="0.32"
   inkscape:version="0.46"
   sodipodi:docname="openarena-logo.svg"
   inkscape:output_extension="org.inkscape.output.svg.inkscape"><metadata
   id="metadata12"><rdf:RDF><cc:Work
       rdf:about=""><dc:format>image/svg+xml</dc:format><dc:type
         rdf:resource="http://purl.org/dc/dcmitype/StillImage" /></cc:Work></rdf:RDF></metadata><defs
   id="defs10"><inkscape:perspective
     sodipodi:type="inkscape:persp3d"
     inkscape:vp_x="0 : 119.994 : 1"
     inkscape:vp_y="0 : 1000 : 0"
     inkscape:vp_z="317.98401 : 119.994 : 1"
     inkscape:persp3d-origin="158.992 : 79.996002 : 1"
     id="perspective14" /></defs><sodipodi:namedview
   inkscape:window-height="752"
   inkscape:window-width="1280"
   inkscape:pageshadow="2"
   inkscape:pageopacity="0.0"
   guidetolerance="10.0"
   gridtolerance="10.0"
   objecttolerance="10.0"
   borderopacity="1.0"
   bordercolor="#666666"
   pagecolor="#ffffff"
   id="base"
   showgrid="false"
   inkscape:zoom="1.1941366"
   inkscape:cx="151.61461"
   inkscape:cy="139.29701"
   inkscape:window-x="0"
   inkscape:window-y="25"
   inkscape:current-layer="Layer_2" />


<g
   id="g2387"
   transform="matrix(1.1367713,0,0,1.1367227,-22.667468,-14.385513)"><polygon
     id="polygon3"
     points="160.232,156.905 149.096,134.604 160.232,108.905 171.368,134.604 160.232,156.905 "
     style="stroke:#000000" /><path
     id="path5"
     d="M 196.093,223.061 L 232.768,223.061 C 225.819,219.973 221.573,213.795 221.573,213.795 L 160.479,13.155 L 99.386,214.012 C 99.386,214.012 95.139,220.189 88.19,223.278 L 124.865,223.278 C 124.865,223.278 116.732,218.905 113.399,214.905 L 160.479,48.797 L 207.56,214.689 C 204.226,218.688 196.093,223.061 196.093,223.061 z"
     style="stroke:#000000" /><path
     id="path7"
     d="M 159.803,41.445 C 79.955,41.445 15.225,66.68 15.225,97.809 C 15.225,125.084 64.917,147.832 130.93,153.048 L 137.075,131.367 C 69.945,128.203 14.779,111.32 20.631,90.325 C 27.066,67.238 82.941,44.238 159.803,44.238 C 236.666,44.238 294.733,68.905 298.976,90.325 C 303.181,111.554 250.098,128.047 183.897,131.312 L 190.034,152.935 C 255.367,147.516 304.381,124.896 304.381,97.809 C 304.381,66.681 239.651,41.445 159.803,41.445 z"
     style="stroke:#000000" /></g>
</svg>